General
Complete name                            : D:Meu AmorzinhoProjeto Cura Interior - Marielena Saivish Vogel1┬║ Aula  04-03-2012 .MPG
Format                                   : MPEG-PS
File size                                : 1.89 GiB
Duration                                 : 29mn 5s
Overall bit rate                         : 9 320 Kbps

Video
ID                                       : 224 (0xE0)
Format                                   : MPEG Video
Format version                           : Version 2
Format profile                           : Main@Main
Format settings, BVOP                    : Yes
Format settings, Matrix                  : Custom
Format settings, GOP                     : M=3, N=15
Duration                                 : 29mn 5s
Bit rate mode                            : Variable
Bit rate                                 : 8 879 Kbps
Maximum bit rate                         : 9 100 Kbps
Width                                    : 720 pixels
Height                                   : 480 pixels
Display aspect ratio                     : 16:9
Frame rate                               : 29.970 fps
Standard                                 : NTSC
Color space                              : YUV
Chroma subsampling                       : 4:2:0
Bit depth                                : 8 bits
Scan type                                : Interlaced
Scan order                               : Top Field First
Compression mode                         : Lossy
Bits/(Pixel*Frame)                       : 0.857
Stream size                              : 1.80 GiB (95%)

Audio
ID                                       : 189 (0xBD)-128 (0x80)
Format                                   : AC-3
Format/Info                              : Audio Coding 3
Mode extension                           : CM (complete main)
Muxing mode                              : DVD-Video
Duration                                 : 29mn 5s
Bit rate mode                            : Constant
Bit rate                                 : 256 Kbps
Channel(s)                               : 2 channels
Channel positions                        : Front: L R
Sampling rate                            : 48.0 KHz
Bit depth                                : 16 bits
Compression mode                         : Lossy
Delay relative to video                  : -70ms
Stream size                              : 53.3 MiB (3%)